<?xml version="1.0" encoding="UTF-8"?>
<!DOCTYPE svg PUBLIC "-//W3C//DTD SVG 1.1//EN" "http://www.w3.org/Graphics/SVG/1.1/DTD/svg11.dtd">
<svg xmlns="http://www.w3.org/2000/svg" version="1.1" width="6710px" height="3598px" style="shape-rendering:geometricPrecision; text-rendering:geometricPrecision; image-rendering:optimizeQuality; fill-rule:evenodd; clip-rule:evenodd" xmlns:xlink="http://www.w3.org/1999/xlink">
<g><path style="opacity:0.26" fill="#343532" d="M -0.5,-0.5 C 2236.17,-0.5 4472.83,-0.5 6709.5,-0.5C 6709.5,1198.83 6709.5,2398.17 6709.5,3597.5C 4472.83,3597.5 2236.17,3597.5 -0.5,3597.5C -0.5,2398.17 -0.5,1198.83 -0.5,-0.5 Z"/></g>
<g><path style="opacity:1" fill="#fdda07" d="M 2840.5,794.5 C 2857.23,794.518 2874.07,794.518 2891,794.5C 2900.88,796.795 2910.72,799.295 2920.5,802C 2953.16,814.328 2976.33,836.495 2990,868.5C 3000.19,895.046 3008.69,921.88 3015.5,949C 3016.7,949.903 3017.53,951.069 3018,952.5C 3029.77,994.517 3048.77,1032.85 3075,1067.5C 3108.75,1103.57 3149.91,1119.57 3198.5,1115.5C 3211.62,1113.37 3224.78,1111.37 3238,1109.5C 3238.87,1109.74 3239.71,1110.07 3240.5,1110.5C 3264.48,1105.38 3288.64,1103.04 3313,1103.5C 3321.25,1102.98 3329.42,1102.15 3337.5,1101C 3349.5,1100.83 3361.5,1100.67 3373.5,1100.5C 3396,1100.29 3418.33,1101.12 3440.5,1103C 3466.67,1105.89 3492,1109.22 3516.5,1113C 3527.14,1115.2 3537.97,1117.7 3549,1120.5C 3549.41,1120.04 3549.91,1119.71 3550.5,1119.5C 3599.95,1131.07 3649.28,1143.07 3698.5,1155.5C 3721.45,1150.37 3742.11,1140.54 3760.5,1126C 3770.33,1117.01 3780.66,1108.51 3791.5,1100.5C 3812.52,1088.97 3832.02,1075.31 3850,1059.5C 3861.32,1046.17 3871.65,1032.17 3881,1017.5C 3889.52,1007.98 3900.02,1001.65 3912.5,998.5C 3916.61,998.438 3919.11,1000.44 3920,1004.5C 3921.74,1023.25 3924.41,1041.58 3928,1059.5C 3941.59,1070.41 3955.75,1080.58 3970.5,1090C 3979.36,1097.52 3985.86,1106.69 3990,1117.5C 3999.87,1133.04 4012.21,1146.37 4027,1157.5C 4029.19,1163.35 4028.86,1169.02 4026,1174.5C 4016.25,1189.01 4006.75,1203.68 3997.5,1218.5C 3995.21,1221.46 3992.21,1223.12 3988.5,1223.5C 3973.7,1222.06 3958.87,1221.06 3944,1220.5C 3940.1,1220.52 3936.26,1221.02 3932.5,1222C 3917.11,1234.04 3901.11,1245.37 3884.5,1256C 3876.1,1264.5 3872.1,1274.83 3872.5,1287C 3871.71,1328.65 3875.21,1370.15 3883,1411.5C 3884.35,1416.85 3885.68,1422.19 3887,1427.5C 3897.94,1455.05 3911.27,1481.38 3927,1506.5C 3948,1539.17 3970,1571.17 3993,1602.5C 3999.04,1610.27 4006.21,1616.77 4014.5,1622C 4024.34,1625.17 4034.17,1628.33 4044,1631.5C 4044.17,1638.83 4044.33,1646.17 4044.5,1653.5C 4044.47,1661.33 4043.8,1669 4042.5,1676.5C 4023.42,1677.97 4004.42,1677.47 3985.5,1675C 3968.67,1662.13 3952.84,1647.97 3938,1632.5C 3917.34,1606.83 3897,1580.83 3877,1554.5C 3844.64,1522.26 3808.8,1494.76 3769.5,1472C 3748.71,1461.29 3727.04,1452.96 3704.5,1447C 3697.35,1445.38 3690.18,1445.21 3683,1446.5C 3674.91,1452.59 3668.24,1459.92 3663,1468.5C 3658.13,1476.24 3653.8,1484.24 3650,1492.5C 3638.12,1521.55 3628.62,1551.22 3621.5,1581.5C 3617.1,1593.71 3613.1,1606.05 3609.5,1618.5C 3610.62,1619.91 3611.62,1621.41 3612.5,1623C 3618,1626.59 3623.67,1629.92 3629.5,1633C 3631.7,1635.23 3633.53,1637.73 3635,1640.5C 3637.27,1651.65 3636.6,1662.65 3633,1673.5C 3632.17,1674.33 3631.33,1675.17 3630.5,1676C 3615,1676.39 3599.5,1676.89 3584,1677.5C 3578.44,1677.52 3572.94,1677.02 3567.5,1676C 3564,1673.83 3561.17,1671 3559,1667.5C 3554.54,1660.91 3550.87,1653.91 3548,1646.5C 3547.96,1574.83 3547.96,1503.17 3548,1431.5C 3515.98,1425.9 3483.64,1420.24 3451,1414.5C 3450.11,1415.08 3449.11,1415.41 3448,1415.5C 3432.04,1413.09 3416.2,1410.09 3400.5,1406.5C 3398.91,1407.01 3397.75,1408.01 3397,1409.5C 3375.19,1451.79 3352.86,1493.79 3330,1535.5C 3328.04,1540.24 3326.54,1545.07 3325.5,1550C 3332.13,1574.93 3342.79,1597.93 3357.5,1619C 3359.09,1619.86 3360.75,1620.53 3362.5,1621C 3372.54,1621.2 3382.54,1621.87 3392.5,1623C 3400.24,1624.8 3406.74,1628.63 3412,1634.5C 3414.52,1638.07 3415.86,1642.07 3416,1646.5C 3416.65,1654.69 3417.49,1662.86 3418.5,1671C 3418.06,1672.82 3417.72,1674.66 3417.5,1676.5C 3388.27,1677.64 3359.1,1677.64 3330,1676.5C 3328.97,1673.01 3327.63,1669.68 3326,1666.5C 3300.63,1629.81 3275.3,1593.14 3250,1556.5C 3248.37,1545.56 3247.54,1534.56 3247.5,1523.5C 3248.17,1507.83 3248.83,1492.17 3249.5,1476.5C 3249.33,1462.93 3248.33,1449.43 3246.5,1436C 3246.25,1427.54 3244.08,1419.37 3240,1411.5C 3238.13,1408.14 3235.3,1406.14 3231.5,1405.5C 3221.39,1408.22 3211.72,1412.06 3202.5,1417C 3186.26,1426.24 3170.26,1435.9 3154.5,1446C 3120.55,1470.18 3086.55,1494.18 3052.5,1518C 3036.2,1530.94 3024.87,1547.27 3018.5,1567C 3018.83,1567.33 3019.17,1567.67 3019.5,1568C 3018.39,1571.28 3017.06,1574.45 3015.5,1577.5C 3013.48,1590.19 3010.48,1603.19 3006.5,1616.5C 3006.88,1618.38 3007.88,1619.88 3009.5,1621C 3016.38,1624.34 3021.88,1629.18 3026,1635.5C 3028.25,1646.71 3029.75,1658.05 3030.5,1669.5C 3030.36,1672.04 3029.69,1674.38 3028.5,1676.5C 3007.84,1677.67 2987.17,1677.83 2966.5,1677C 2961.47,1676.83 2956.47,1676.33 2951.5,1675.5C 2951.19,1674.69 2950.69,1674.03 2950,1673.5C 2947.87,1659.6 2945.7,1645.76 2943.5,1632C 2943.83,1631 2944.17,1630 2944.5,1629C 2942.54,1626.83 2942.2,1624.5 2943.5,1622C 2939.68,1605.93 2939.51,1589.76 2943,1573.5C 2955.79,1533.25 2973.46,1495.25 2996,1459.5C 3013.28,1436.61 3028.28,1412.28 3041,1386.5C 3059.91,1340.85 3077.91,1294.85 3095,1248.5C 3101.68,1235.8 3108.35,1223.14 3115,1210.5C 3120,1203.5 3125,1196.5 3130,1189.5C 3133,1185.17 3136.67,1181.5 3141,1178.5C 3142.7,1176.3 3144.2,1173.97 3145.5,1171.5C 3141.11,1168.64 3136.45,1166.31 3131.5,1164.5C 3091.76,1154.7 3058.6,1134.03 3032,1102.5C 3010.77,1074.89 2993.27,1045.05 2979.5,1013C 2966.06,973.326 2952.89,933.16 2940,892.5C 2927.58,865.514 2906.42,850.681 2876.5,848C 2866.82,847.379 2857.16,847.546 2847.5,848.5C 2825.24,847.399 2815.4,835.732 2818,813.5C 2820.01,809.487 2822.51,805.82 2825.5,802.5C 2830.46,799.525 2835.46,796.858 2840.5,794.5 Z"/></g>
<g><path style="opacity:1" fill="#fdda07" d="M 2423.5,1767.5 C 2449.82,1768.24 2476.16,1768.74 2502.5,1769C 2503.83,1771.88 2503.66,1774.71 2502,1777.5C 2489.22,1791.3 2475.06,1803.14 2459.5,1813C 2420.91,1843.63 2380.91,1872.29 2339.5,1899C 2333.73,1902.84 2327.39,1904.34 2320.5,1903.5C 2320.34,1901.8 2320.51,1900.13 2321,1898.5C 2332.21,1876.57 2344.04,1855.07 2356.5,1834C 2358.91,1827.88 2362.24,1821.88 2366.5,1816C 2366.17,1815.67 2365.83,1815.33 2365.5,1815C 2369.17,1809.33 2372.83,1803.67 2376.5,1798C 2376.5,1797 2376.5,1796 2376.5,1795C 2381.77,1786.74 2386.6,1778.24 2391,1769.5C 2401.93,1768.84 2412.76,1768.18 2423.5,1767.5 Z"/></g>
<g><path style="opacity:1" fill="#fdda07" d="M 3153.5,1768.5 C 3190.17,1768.33 3226.83,1768.5 3263.5,1769C 3264.62,1772.07 3264.78,1775.24 3264,1778.5C 3260.13,1782.03 3256.63,1785.87 3253.5,1790C 3203.05,1830.72 3150.05,1867.72 3094.5,1901C 3090.85,1901.5 3087.18,1901.67 3083.5,1901.5C 3083.26,1898.42 3083.59,1895.42 3084.5,1892.5C 3088.04,1887.25 3091.71,1882.08 3095.5,1877C 3095.17,1876.67 3094.83,1876.33 3094.5,1876C 3100.13,1867.23 3105.63,1858.39 3111,1849.5C 3125.83,1822.36 3139.99,1795.36 3153.5,1768.5 Z"/></g>
<g><path style="opacity:1" fill="#fdda07" d="M 1695.5,1771.5 C 1758.86,1773.25 1822.2,1773.92 1885.5,1773.5C 1886.59,1966.17 1887.76,2158.84 1889,2351.5C 1890.04,2357.5 1892.2,2363 1895.5,2368C 1895.17,2368.33 1894.83,2368.67 1894.5,2369C 1900.95,2375.39 1907.95,2381.05 1915.5,2386C 1918.65,2387.6 1921.98,2388.6 1925.5,2389C 1936.22,2390.18 1946.89,2391.68 1957.5,2393.5C 1958.13,2396.97 1957.13,2399.8 1954.5,2402C 1866.17,2403.41 1777.84,2403.91 1689.5,2403.5C 1689.05,2400.64 1689.72,2398.14 1691.5,2396C 1707.27,2393.22 1722.6,2388.89 1737.5,2383C 1750.55,2376.09 1758.05,2365.25 1760,2350.5C 1761.46,2175.84 1761.79,2001.17 1761,1826.5C 1760.81,1821.65 1759.81,1816.99 1758,1812.5C 1753.06,1803.25 1745.89,1796.08 1736.5,1791C 1722.52,1787.1 1708.52,1783.27 1694.5,1779.5C 1691.73,1776.4 1692.06,1773.73 1695.5,1771.5 Z"/></g>
<g><path style="opacity:1" fill="#fdda07" d="M 2599.5,1771.5 C 2662.18,1773.07 2724.84,1773.57 2787.5,1773C 2788.67,1773.5 2789.5,1774.33 2790,1775.5C 2790.06,1965.5 2790.73,2155.5 2792,2345.5C 2793.28,2355.56 2796.12,2364.73 2800.5,2373C 2804.22,2376.38 2808.22,2379.38 2812.5,2382C 2827.03,2388.91 2842.36,2392.24 2858.5,2392C 2861.55,2395.85 2860.88,2398.85 2856.5,2401C 2845.91,2402.26 2835.24,2402.93 2824.5,2403C 2793.83,2403.17 2763.17,2403.33 2732.5,2403.5C 2687.59,2403.68 2642.75,2403.01 2598,2401.5C 2596.88,2398 2597.71,2395.17 2600.5,2393C 2615.5,2391.87 2629.84,2388.2 2643.5,2382C 2654.08,2375.35 2660.58,2365.85 2663,2353.5C 2663.67,2176.17 2663.67,1998.83 2663,1821.5C 2657.33,1801.54 2644.16,1789.71 2623.5,1786C 2614.99,1784.64 2606.66,1782.64 2598.5,1780C 2594.42,1776.71 2594.76,1773.88 2599.5,1771.5 Z"/></g>
<g><path style="opacity:1" fill="#fdda07" d="M 2095.5,1809.5 C 2097.58,1809.47 2099.42,1810.14 2101,1811.5C 2100.94,1816.14 2100.6,1820.81 2100,1825.5C 2085.94,1881.55 2072.27,1938.21 2059,1995.5C 2057.02,2003.83 2051.85,2007.99 2043.5,2008C 2040.01,2005.91 2038.17,2002.74 2038,1998.5C 2031.39,1968.22 2024.22,1938.05 2016.5,1908C 2016.64,1907.23 2016.98,1906.56 2017.5,1906C 2010.09,1880.53 2003.59,1855.03 1998,1829.5C 1996.67,1823.87 1996,1818.21 1996,1812.5C 2029.28,1811.91 2062.44,1810.91 2095.5,1809.5 Z"/></g>
<g><path style="opacity:1" fill="#fdda07" d="M 5049.5,1822.5 C 5055.74,1822.43 5058.41,1825.6 5057.5,1832C 5056.87,1852.32 5056.53,1872.66 5056.5,1893C 5056.38,1914.19 5056.88,1935.36 5058,1956.5C 5092.76,1957.33 5127.6,1957.83 5162.5,1958C 5165.68,1960.48 5166.02,1963.15 5163.5,1966C 5129.48,1968.08 5095.48,1967.91 5061.5,1965.5C 5059.62,1965.88 5058.12,1966.88 5057,1968.5C 5056.23,2086.5 5056.57,2204.5 5058,2322.5C 5058.84,2334.39 5061.34,2345.89 5065.5,2357C 5070.65,2375.46 5082.99,2386.46 5102.5,2390C 5108.83,2390.67 5115.17,2390.67 5121.5,2390C 5138.41,2386.78 5155.41,2384.28 5172.5,2382.5C 5172.1,2387.76 5169.43,2391.59 5164.5,2394C 5128.71,2403.97 5092.21,2409.47 5055,2410.5C 5039.36,2409.86 5023.86,2408.02 5008.5,2405C 4987.77,2398.39 4969.6,2387.55 4954,2372.5C 4949.06,2365.51 4944.56,2357.68 4940.5,2349C 4940.83,2348.67 4941.17,2348.33 4941.5,2348C 4935.09,2332.17 4931.59,2315.67 4931,2298.5C 4930.17,2188.6 4930.33,2078.76 4931.5,1969C 4929.65,1967 4927.32,1966.17 4924.5,1966.5C 4909.84,1967.61 4895.18,1968.11 4880.5,1968C 4876.78,1967.61 4873.11,1966.94 4869.5,1966C 4865.62,1963.87 4865.62,1961.54 4869.5,1959C 4893.62,1956.9 4917.62,1953.9 4941.5,1950C 4985.51,1936.44 5015.85,1908.94 5032.5,1867.5C 5039.07,1854.63 5043.24,1841.29 5045,1827.5C 5046.02,1825.31 5047.52,1823.65 5049.5,1822.5 Z"/></g>
<g><path style="opacity:1" fill="#fdda07" d="M 3738.5,1927.5 C 3751.89,1927.19 3764.89,1929.03 3777.5,1933C 3801.76,1949.16 3807.92,1970.99 3796,1998.5C 3789.82,2008.01 3781.32,2014.51 3770.5,2018C 3762.49,2020.54 3754.33,2022.38 3746,2023.5C 3744.34,2023.32 3743.01,2022.66 3742,2021.5C 3742.23,2005.22 3736.4,1991.39 3724.5,1980C 3705.82,1971.28 3689.15,1974.11 3674.5,1988.5C 3697.36,2008.96 3713.03,2033.63 3721.5,2062.5C 3721.29,2063.09 3720.96,2063.59 3720.5,2064C 3726.04,2083.43 3727.88,2103.26 3726,2123.5C 3711,2200.37 3663.16,2240.87 3582.5,2245C 3567.83,2245.67 3553.17,2245.67 3538.5,2245C 3522.43,2243 3506.43,2241 3490.5,2239C 3473.58,2249 3465.75,2263.84 3467,2283.5C 3470.91,2297.07 3479.74,2305.57 3493.5,2309C 3508.46,2310.23 3523.46,2310.9 3538.5,2311C 3573.5,2311.33 3608.5,2311.67 3643.5,2312C 3673.2,2313.79 3701.2,2321.46 3727.5,2335C 3756.03,2354.97 3772.53,2382.14 3777,2416.5C 3785.1,2491.63 3754.6,2545.13 3685.5,2577C 3672.49,2582.34 3659.16,2586.67 3645.5,2590C 3595.64,2600.07 3545.3,2603.4 3494.5,2600C 3472.98,2597.78 3451.65,2594.45 3430.5,2590C 3404.82,2584.92 3382.99,2573.09 3365,2554.5C 3344.24,2528.74 3340.57,2500.41 3354,2469.5C 3371.67,2445.22 3395.51,2430.39 3425.5,2425C 3443.5,2421.67 3461.5,2418.33 3479.5,2415C 3451.52,2409.6 3428.36,2396.1 3410,2374.5C 3408,2371.17 3406,2367.83 3404,2364.5C 3402.14,2357.48 3400.14,2349.81 3398,2341.5C 3393.04,2319.68 3396.7,2300.02 3409,2282.5C 3419.04,2269.92 3431.54,2259.42 3446.5,2251C 3456.24,2245.8 3466.24,2241.13 3476.5,2237C 3478.53,2235.6 3478.86,2233.94 3477.5,2232C 3426.15,2214.64 3396.31,2179.47 3388,2126.5C 3383.69,2099.94 3385.19,2073.77 3392.5,2048C 3402.3,2012.45 3423.97,1985.78 3457.5,1968C 3467.5,1964 3477.5,1960 3487.5,1956C 3527.32,1945.56 3567.32,1944.56 3607.5,1953C 3628.97,1958.44 3648.64,1967.61 3666.5,1980.5C 3676.21,1966.25 3688.21,1953.41 3702.5,1942C 3707.01,1939.25 3711.34,1936.25 3715.5,1933C 3723.12,1930.45 3730.79,1928.61 3738.5,1927.5 Z"/></g>
<g><path style="opacity:1" fill="#fdda07" d="M 2337.5,1947.5 C 2374.2,1946.51 2409.86,1952.01 2444.5,1964C 2482.8,1981.64 2510.97,2009.14 2529,2046.5C 2532.79,2056.49 2536.46,2066.82 2540,2077.5C 2545.84,2107.23 2548.51,2137.23 2548,2167.5C 2547.25,2168.13 2546.42,2168.63 2545.5,2169C 2456.17,2169.59 2366.83,2169.43 2277.5,2168.5C 2276.83,2203.88 2279.16,2239.05 2284.5,2274C 2286.14,2290.26 2289.8,2306.59 2295.5,2323C 2301.48,2345.41 2313.14,2364.74 2330.5,2381C 2336.57,2385.4 2342.9,2389.4 2349.5,2393C 2384.82,2402.57 2418.16,2398.24 2449.5,2380C 2451.93,2376.91 2454.93,2374.57 2458.5,2373C 2461.85,2368.65 2465.52,2364.65 2469.5,2361C 2470.83,2356.89 2473.33,2353.06 2477,2349.5C 2487.53,2329.1 2494.53,2307.43 2498,2284.5C 2498.89,2278.97 2502.06,2276.81 2507.5,2278C 2510.19,2279.37 2512.85,2280.7 2515.5,2282C 2522.35,2289.86 2527.19,2299.36 2530,2310.5C 2530.74,2316.56 2530.41,2322.56 2529,2328.5C 2525.53,2337.01 2522.2,2344.68 2519,2351.5C 2514.09,2358.14 2508.59,2364.3 2502.5,2370C 2465.53,2397.88 2423.7,2411.38 2377,2410.5C 2350.63,2410.01 2324.46,2407.51 2298.5,2403C 2239.77,2388.92 2197.11,2354.92 2170.5,2301C 2170.83,2300.67 2171.17,2300.33 2171.5,2300C 2163.47,2284.42 2157.97,2267.92 2155,2250.5C 2147.99,2209.82 2146.99,2169.15 2152,2128.5C 2154.15,2115.06 2157.32,2101.89 2161.5,2089C 2177.54,2021.91 2219.54,1977.58 2287.5,1956C 2304.13,1952.17 2320.8,1949.34 2337.5,1947.5 Z"/></g>
<g><path style="opacity:1" fill="#fdda07" d="M 3096.5,1947.5 C 3150.48,1942.41 3199.48,1955.24 3243.5,1986C 3258.15,1996.95 3269.98,2009.78 3279,2024.5C 3304.4,2069.5 3313.9,2117.67 3307.5,2169C 3218.26,2169.42 3129.09,2169.58 3040,2169.5C 3039.61,2209.04 3042.27,2248.37 3048,2287.5C 3049.54,2296.19 3051.7,2304.69 3054.5,2313C 3054.17,2313.33 3053.83,2313.67 3053.5,2314C 3057.86,2325.88 3062.36,2337.72 3067,2349.5C 3076.83,2368.67 3091.33,2383.17 3110.5,2393C 3135.79,2400.12 3161.12,2400.12 3186.5,2393C 3202.65,2388.5 3215.82,2379.67 3226,2366.5C 3234.99,2353.94 3242.82,2341.11 3249.5,2328C 3249.17,2327.67 3248.83,2327.33 3248.5,2327C 3254.44,2311.05 3258.11,2294.55 3259.5,2277.5C 3268.01,2274.42 3275.18,2276.42 3281,2283.5C 3288.29,2293.85 3291.79,2305.19 3291.5,2317.5C 3291.42,2321.8 3290.76,2325.97 3289.5,2330C 3289.96,2330.41 3290.29,2330.91 3290.5,2331.5C 3284.92,2348.15 3275.25,2361.98 3261.5,2373C 3230.08,2395.7 3194.75,2407.7 3155.5,2409C 3118.26,2411.61 3081.59,2408.28 3045.5,2399C 2989.51,2381.66 2951.18,2345.99 2930.5,2292C 2925.49,2281.65 2922.16,2270.99 2920.5,2260C 2910.63,2223.09 2907.79,2185.59 2912,2147.5C 2914.92,2122.91 2919.59,2098.91 2926,2075.5C 2947.63,2011.54 2991.8,1970.7 3058.5,1953C 3071.26,1950.82 3083.93,1948.99 3096.5,1947.5 Z"/></g>
<g><path style="opacity:1" fill="#fdda07" d="M 4025.5,1947.5 C 4069.13,1944.41 4111.46,1950.24 4152.5,1965C 4167.52,1970.08 4180.36,1978.24 4191,1989.5C 4199.83,2001.08 4207.33,2014.08 4213.5,2028.5C 4213.29,2029.09 4212.96,2029.59 4212.5,2030C 4218.87,2046.86 4222.04,2064.36 4222,2082.5C 4222.18,2169.68 4222.68,2256.85 4223.5,2344C 4223.7,2355.96 4226.53,2367.46 4232,2378.5C 4236.01,2382.63 4240.85,2385.46 4246.5,2387C 4255.46,2388.91 4264.46,2390.58 4273.5,2392C 4274,2392.5 4274.5,2393 4275,2393.5C 4275.25,2396.2 4275.42,2398.7 4275.5,2401C 4273.96,2401.29 4272.62,2401.96 4271.5,2403C 4213.5,2403.67 4155.5,2403.67 4097.5,2403C 4097.99,2381.22 4097.49,2359.39 4096,2337.5C 4095.67,2334.5 4095.33,2331.5 4095,2328.5C 4094.58,2327.33 4093.91,2326.33 4093,2325.5C 4087.03,2348.57 4075.19,2368.07 4057.5,2384C 4044.65,2393.92 4030.32,2400.92 4014.5,2405C 3993.02,2409.77 3971.35,2411.11 3949.5,2409C 3896.03,2401.07 3862.19,2372.24 3848,2322.5C 3840.82,2291.08 3842.32,2260.08 3852.5,2229.5C 3860.11,2213.36 3871.77,2200.19 3887.5,2190C 3911.43,2176.24 3937.1,2167.24 3964.5,2163C 3975.47,2161.45 3986.47,2160.11 3997.5,2159C 4029.74,2157.14 4061.91,2154.97 4094,2152.5C 4096.03,2103.47 4095.37,2054.47 4092,2005.5C 4089.87,1989.07 4082.7,1974.9 4070.5,1963C 4053.46,1956.35 4036.8,1957.35 4020.5,1966C 4013.01,1972.08 4007.18,1978.91 4003,1986.5C 3999.63,1992.35 3997.8,1998.02 3997.5,2003.5C 3991.73,2031.25 3990.06,2059.25 3992.5,2087.5C 3976.86,2088.08 3961.2,2087.92 3945.5,2087C 3925.36,2084.58 3907.36,2077.25 3891.5,2065C 3879.63,2052.71 3875.46,2038.21 3879,2021.5C 3880.88,2013.87 3883.54,2006.54 3887,1999.5C 3890.58,1995.37 3893.92,1991.04 3897,1986.5C 3901.79,1983.38 3906.29,1979.88 3910.5,1976C 3929.75,1965.58 3950.08,1957.92 3971.5,1953C 3989.62,1950.82 4007.62,1948.99 4025.5,1947.5 Z"/></g>
<g><path style="opacity:1" fill="#fdda07" d="M 4624.5,1947.5 C 4656.01,1946.63 4685.67,1953.47 4713.5,1968C 4726.21,1975.37 4736.88,1985.03 4745.5,1997C 4749.74,2003.48 4753.74,2010.15 4757.5,2017C 4757.17,2017.33 4756.83,2017.67 4756.5,2018C 4761.26,2028.45 4764.93,2039.28 4767.5,2050.5C 4767.39,2051.44 4767.06,2052.28 4766.5,2053C 4769.52,2065.28 4771.35,2077.78 4772,2090.5C 4772.33,2163.5 4772.67,2236.5 4773,2309.5C 4773.32,2323.85 4773.99,2338.18 4775,2352.5C 4776.18,2358.21 4777.51,2363.87 4779,2369.5C 4782.17,2374 4785.33,2378.5 4788.5,2383C 4792.09,2384.96 4795.76,2386.63 4799.5,2388C 4807.81,2388.96 4816.14,2389.62 4824.5,2390C 4828.89,2391.52 4830.22,2394.35 4828.5,2398.5C 4826.95,2400.55 4824.95,2402.05 4822.5,2403C 4764.17,2403.67 4705.83,2403.67 4647.5,2403C 4647,2402.5 4646.5,2402 4646,2401.5C 4645.67,2303.5 4645.33,2205.5 4645,2107.5C 4644.4,2081.45 4643.07,2055.45 4641,2029.5C 4637.6,2013.25 4630.76,1998.75 4620.5,1986C 4617.92,1985.22 4615.92,1983.72 4614.5,1981.5C 4577.41,1965.8 4549.75,1975.3 4531.5,2010C 4527.09,2016.52 4523.42,2023.52 4520.5,2031C 4520.96,2031.41 4521.29,2031.91 4521.5,2032.5C 4515.21,2050.16 4511.54,2068.33 4510.5,2087C 4510.72,2175.35 4510.72,2263.69 4510.5,2352C 4516.63,2371.8 4529.63,2384.47 4549.5,2390C 4558.54,2391.09 4567.54,2392.42 4576.5,2394C 4578.48,2398.37 4577.15,2401.37 4572.5,2403C 4568.17,2403.33 4563.83,2403.67 4559.5,2404C 4477.83,2404.56 4396.16,2404.23 4314.5,2403C 4311.97,2400.41 4311.97,2397.75 4314.5,2395C 4328.11,2393.29 4341.45,2390.29 4354.5,2386C 4369.59,2379.89 4378.43,2368.73 4381,2352.5C 4381.93,2347.2 4382.6,2341.87 4383,2336.5C 4383.17,2317.83 4383.33,2299.17 4383.5,2280.5C 4383.15,2189.81 4382.32,2099.14 4381,2008.5C 4379.42,1992.8 4371.58,1981.63 4357.5,1975C 4343.7,1971.11 4329.7,1968.11 4315.5,1966C 4311.21,1964.15 4310.54,1961.49 4313.5,1958C 4378.17,1957.33 4442.83,1957.33 4507.5,1958C 4508.03,1958.69 4508.69,1959.19 4509.5,1959.5C 4509.2,1981.52 4510.03,2003.52 4512,2025.5C 4514.84,2020.32 4517.67,2015.15 4520.5,2010C 4520.04,2009.59 4519.71,2009.09 4519.5,2008.5C 4530.48,1981.71 4550.15,1963.87 4578.5,1955C 4593.84,1951.63 4609.17,1949.13 4624.5,1947.5 Z"/></g>
<g><path style="opacity:1" fill="#343532" d="M 2353.5,1957.5 C 2370.63,1958.82 2384.8,1965.82 2396,1978.5C 2399.96,1986.26 2403.79,1994.09 2407.5,2002C 2407.04,2002.41 2406.71,2002.91 2406.5,2003.5C 2414.44,2029.89 2418.11,2056.39 2417.5,2083C 2418.82,2106.8 2420.15,2130.64 2421.5,2154.5C 2421.17,2155.17 2420.83,2155.83 2420.5,2156.5C 2372.83,2157.24 2325.16,2157.91 2277.5,2158.5C 2276.66,2120.58 2279.33,2082.91 2285.5,2045.5C 2285.39,2044.56 2285.06,2043.72 2284.5,2043C 2288.68,2023.15 2295.51,2004.32 2305,1986.5C 2316.37,1968.6 2332.53,1958.93 2353.5,1957.5 Z"/></g>
<g><path style="opacity:1" fill="#343532" d="M 3103.5,1958.5 C 3118.32,1957.4 3132.32,1960.23 3145.5,1967C 3148.37,1970.2 3151.54,1973.04 3155,1975.5C 3159.46,1983.62 3163.63,1991.45 3167.5,1999C 3171.3,2012.63 3174.64,2026.63 3177.5,2041C 3176.92,2041.89 3176.59,2042.89 3176.5,2044C 3181.46,2081.34 3183.29,2118.84 3182,2156.5C 3181.5,2157 3181,2157.5 3180.5,2158C 3133.17,2158.19 3085.83,2158.02 3038.5,2157.5C 3039.18,2125.07 3041.35,2092.74 3045,2060.5C 3046.96,2046.22 3050.12,2032.22 3054.5,2018.5C 3054.29,2017.91 3053.96,2017.41 3053.5,2017C 3056.4,2008.3 3060.06,1999.97 3064.5,1992C 3064.17,1991.67 3063.83,1991.33 3063.5,1991C 3069.08,1981.52 3076.08,1973.18 3084.5,1966C 3090.75,1962.98 3097.08,1960.48 3103.5,1958.5 Z"/></g>
<g><path style="opacity:1" fill="#343532" d="M 3548.5,1958.5 C 3572.06,1956.6 3588.39,1966.44 3597.5,1988C 3597.17,1988.33 3596.83,1988.67 3596.5,1989C 3605.13,2007.34 3609.3,2026.51 3609,2046.5C 3612.41,2092.25 3611.41,2137.92 3606,2183.5C 3602.64,2197.6 3596.97,2210.6 3589,2222.5C 3583.45,2228.53 3576.61,2232.36 3568.5,2234C 3553.81,2237.85 3539.81,2236.19 3526.5,2229C 3522.36,2225.04 3518.69,2220.7 3515.5,2216C 3515.96,2215.59 3516.29,2215.09 3516.5,2214.5C 3509.36,2199.6 3504.86,2183.93 3503,2167.5C 3496,2110.17 3498,2053.17 3509,1996.5C 3513.82,1981.96 3522.98,1970.46 3536.5,1962C 3540.54,1960.51 3544.54,1959.34 3548.5,1958.5 Z"/></g>
<g><path style="opacity:1" fill="#343532" d="M 4074.5,2164.5 C 4081.42,2164.19 4088.26,2164.52 4095,2165.5C 4095.58,2203.51 4095.25,2241.51 4094,2279.5C 4092.72,2288.45 4090.89,2297.28 4088.5,2306C 4084.57,2333.15 4071.9,2356.15 4050.5,2375C 4035.5,2385.26 4019.16,2387.93 4001.5,2383C 3996.56,2379.06 3991.89,2374.73 3987.5,2370C 3988.63,2368.98 3988.3,2368.32 3986.5,2368C 3986.83,2367.67 3987.17,2367.33 3987.5,2367C 3981.34,2357.57 3978.01,2347.41 3977.5,2336.5C 3972.83,2310.03 3971.33,2283.36 3973,2256.5C 3974.44,2241.99 3977.1,2227.99 3981,2214.5C 3988.58,2190.91 4004.42,2176.41 4028.5,2171C 4043.97,2168.77 4059.3,2166.6 4074.5,2164.5 Z"/></g>
<g><path style="opacity:1" fill="#343532" d="M 3548.5,2421.5 C 3575.85,2421.91 3603.18,2422.74 3630.5,2424C 3658.39,2426.55 3675.89,2441.39 3683,2468.5C 3692.9,2509.41 3681.4,2542.24 3648.5,2567C 3611.92,2584.78 3573.25,2592.45 3532.5,2590C 3480.58,2588.27 3450.92,2561.94 3443.5,2511C 3441.06,2486.32 3447.56,2464.16 3463,2444.5C 3476.91,2430.74 3493.75,2423.58 3513.5,2423C 3525.34,2422.83 3537.01,2422.33 3548.5,2421.5 Z"/></g>
<g><path style="opacity:1" fill="#fdda07" d="M 4595.5,2516.5 C 4600.57,2516.34 4605.57,2516.84 4610.5,2518C 4612.96,2519.46 4615.13,2521.29 4617,2523.5C 4646.05,2562.88 4674.71,2602.55 4703,2642.5C 4702.58,2600.85 4702.42,2559.18 4702.5,2517.5C 4708.09,2517.19 4713.59,2517.53 4719,2518.5C 4719.02,2567.86 4718.52,2617.19 4717.5,2666.5C 4712.16,2666.67 4706.82,2666.5 4701.5,2666C 4699.33,2664.5 4697.17,2663 4695,2661.5C 4667.16,2622.48 4638.82,2583.81 4610,2545.5C 4609.67,2585.5 4609.33,2625.5 4609,2665.5C 4603.59,2666.47 4598.09,2666.81 4592.5,2666.5C 4591.55,2616.84 4591.22,2567.18 4591.5,2517.5C 4593.1,2517.77 4594.43,2517.43 4595.5,2516.5 Z"/></g>
<g><path style="opacity:1" fill="#fdda07" d="M 3935.5,2517.5 C 3965.71,2513.82 3989.54,2524.16 4007,2548.5C 4009.25,2552.5 4011.09,2556.67 4012.5,2561C 4012.25,2562.33 4011.58,2563.33 4010.5,2564C 4002.79,2565.81 3996.46,2563.65 3991.5,2557.5C 3986.1,2547.6 3978.1,2540.77 3967.5,2537C 3963.24,2536.06 3959.07,2534.89 3955,2533.5C 3918.53,2533.62 3897.86,2551.96 3893,2588.5C 3892.2,2607.16 3898.03,2623.32 3910.5,2637C 3933.56,2653.67 3957.23,2654.67 3981.5,2640C 3986.13,2633.44 3991.46,2627.44 3997.5,2622C 4001.92,2619.9 4006.59,2619.06 4011.5,2619.5C 4010.98,2629.88 4007.14,2638.88 4000,2646.5C 3991.12,2656.04 3980.28,2662.21 3967.5,2665C 3951.68,2667.46 3936.01,2666.8 3920.5,2663C 3896.98,2653.13 3882.48,2635.63 3877,2610.5C 3870.8,2578.13 3879.97,2551.3 3904.5,2530C 3914.2,2523.94 3924.53,2519.77 3935.5,2517.5 Z"/></g>
<g><path style="opacity:1" fill="#fdda07" d="M 4057.5,2517.5 C 4063.09,2517.19 4068.59,2517.53 4074,2518.5C 4074.33,2540.5 4074.67,2562.5 4075,2584.5C 4099,2583.17 4123,2583.17 4147,2584.5C 4150.41,2583.71 4153.91,2583.21 4157.5,2583C 4157.44,2561.59 4157.61,2540.09 4158,2518.5C 4164,2517.17 4170,2517.17 4176,2518.5C 4176.5,2567.83 4176.67,2617.17 4176.5,2666.5C 4170.5,2666.5 4164.5,2666.5 4158.5,2666.5C 4158.5,2644.83 4158.5,2623.17 4158.5,2601.5C 4130.93,2601.83 4103.43,2601.5 4076,2600.5C 4074.73,2604.65 4074.06,2608.98 4074,2613.5C 4073.48,2630.93 4073.15,2648.26 4073,2665.5C 4067.59,2666.47 4062.09,2666.81 4056.5,2666.5C 4056.17,2616.76 4056.5,2567.09 4057.5,2517.5 Z"/></g>
<g><path style="opacity:1" fill="#fdda07" d="M 4274.5,2517.5 C 4281.84,2517.33 4289.17,2517.5 4296.5,2518C 4317.07,2564.98 4337.24,2612.14 4357,2659.5C 4357.5,2661.81 4357.66,2664.14 4357.5,2666.5C 4351.82,2666.67 4346.16,2666.5 4340.5,2666C 4339.58,2665.63 4338.75,2665.13 4338,2664.5C 4332.67,2651.84 4327.34,2639.18 4322,2626.5C 4321.65,2624.82 4320.65,2623.82 4319,2623.5C 4306.69,2624.31 4294.36,2624.98 4282,2625.5C 4271.18,2624.53 4260.34,2624.37 4249.5,2625C 4244.55,2638.6 4238.72,2651.76 4232,2664.5C 4231.5,2665 4231,2665.5 4230.5,2666C 4224.51,2666.5 4218.51,2666.67 4212.5,2666.5C 4212.34,2664.8 4212.51,2663.13 4213,2661.5C 4233.43,2613.34 4253.93,2565.34 4274.5,2517.5 Z"/></g>
<g><path style="opacity:1" fill="#fdda07" d="M 4367.5,2517.5 C 4407.17,2517.33 4446.83,2517.5 4486.5,2518C 4487.77,2520.55 4488.44,2523.39 4488.5,2526.5C 4488.33,2529.17 4488.17,2531.83 4488,2534.5C 4487.5,2535 4487,2535.5 4486.5,2536C 4469.84,2536.5 4453.17,2536.67 4436.5,2536.5C 4435.92,2579.5 4435.42,2622.5 4435,2665.5C 4429.59,2666.47 4424.09,2666.81 4418.5,2666.5C 4418.59,2623.16 4418.25,2579.83 4417.5,2536.5C 4400.5,2536.5 4383.5,2536.5 4366.5,2536.5C 4366.21,2530.08 4366.54,2523.74 4367.5,2517.5 Z"/></g>
<g><path style="opacity:1" fill="#fdda07" d="M 4827.5,2517.5 C 4863.68,2514.67 4890.52,2529 4908,2560.5C 4922.87,2604.25 4910.7,2637.75 4871.5,2661C 4855.95,2666.29 4839.95,2667.96 4823.5,2666C 4798.86,2660.35 4781.02,2646.19 4770,2623.5C 4755.59,2583.55 4765.76,2551.39 4800.5,2527C 4809.18,2522.5 4818.18,2519.33 4827.5,2517.5 Z"/></g>
<g><path style="opacity:1" fill="#fdd908" d="M 4960.5,2517.5 C 4964.85,2517.33 4969.18,2517.5 4973.5,2518C 4974,2518.5 4974.5,2519 4975,2519.5C 4975.83,2568.4 4975.66,2617.24 4974.5,2666C 4969.25,2666.8 4964.08,2666.64 4959,2665.5C 4958.33,2616.83 4958.33,2568.17 4959,2519.5C 4959.72,2518.96 4960.22,2518.29 4960.5,2517.5 Z"/></g>
<g><path style="opacity:1" fill="#fdda07" d="M 5030.5,2517.5 C 5057.16,2518.2 5083.83,2518.7 5110.5,2519C 5133.97,2522.47 5147.14,2535.63 5150,2558.5C 5152.08,2573.49 5147.92,2586.32 5137.5,2597C 5130.61,2601.36 5123.28,2604.86 5115.5,2607.5C 5126.47,2624.3 5137.64,2640.97 5149,2657.5C 5150.91,2660.21 5151.74,2663.21 5151.5,2666.5C 5145.82,2666.67 5140.16,2666.5 5134.5,2666C 5132.71,2665.22 5131.21,2664.05 5130,2662.5C 5119.35,2645.89 5108.52,2628.89 5097.5,2611.5C 5081.21,2610.35 5064.88,2610.18 5048.5,2611C 5047.83,2611.67 5047.17,2612.33 5046.5,2613C 5047.66,2630.43 5047.82,2647.93 5047,2665.5C 5041.26,2666.47 5035.43,2666.81 5029.5,2666.5C 5029.17,2616.76 5029.5,2567.09 5030.5,2517.5 Z"/></g>
<g><path style="opacity:1" fill="#343532" d="M 4830.5,2533.5 C 4866.24,2532.03 4888.08,2549.03 4896,2584.5C 4897.2,2618.28 4881.7,2640.12 4849.5,2650C 4817.27,2653.14 4795.44,2639.64 4784,2609.5C 4777.14,2570.24 4792.64,2544.91 4830.5,2533.5 Z"/></g>
<g><path style="opacity:1" fill="#343532" d="M 5047.5,2534.5 C 5066.17,2534.33 5084.84,2534.5 5103.5,2535C 5124.81,2538.84 5133.98,2551.34 5131,2572.5C 5126.11,2583.05 5117.94,2589.55 5106.5,2592C 5086.85,2593.3 5067.18,2593.63 5047.5,2593C 5047.49,2573.5 5047.49,2554 5047.5,2534.5 Z"/></g>
<g><path style="opacity:1" fill="#343532" d="M 4284.5,2540.5 C 4293.52,2559.03 4301.68,2578.03 4309,2597.5C 4310.96,2600.58 4312.79,2603.75 4314.5,2607C 4295.49,2607.83 4276.49,2607.67 4257.5,2606.5C 4267.2,2585.13 4276.2,2563.13 4284.5,2540.5 Z"/></g>
</svg>
