<?xml version="1.0" encoding="UTF-8"?>
<!DOCTYPE svg PUBLIC "-//W3C//DTD SVG 1.1//EN" "http://www.w3.org/Graphics/SVG/1.1/DTD/svg11.dtd">
<svg xmlns="http://www.w3.org/2000/svg" version="1.1" width="1709px" height="1709px" style="shape-rendering:geometricPrecision; text-rendering:geometricPrecision; image-rendering:optimizeQuality; fill-rule:evenodd; clip-rule:evenodd" xmlns:xlink="http://www.w3.org/1999/xlink">
<g><path style="opacity:1" fill="#323330" d="M -0.5,-0.5 C 569.167,-0.5 1138.83,-0.5 1708.5,-0.5C 1708.5,569.167 1708.5,1138.83 1708.5,1708.5C 1138.83,1708.5 569.167,1708.5 -0.5,1708.5C -0.5,1138.83 -0.5,569.167 -0.5,-0.5 Z"/></g>
<g><path style="opacity:1" fill="#fdda07" d="M 150.5,292.5 C 193.957,288.865 233.957,298.698 270.5,322C 290.758,337.337 305.591,356.837 315,380.5C 330.264,427.626 345.931,474.626 362,521.5C 374.993,554.506 392.326,584.839 414,612.5C 451.544,655.015 498.711,674.515 555.5,671C 587.868,667.281 620.201,663.281 652.5,659C 717.123,653.942 781.79,653.275 846.5,657C 895.289,661.743 943.622,669.409 991.5,680C 1044.25,691.812 1096.75,704.646 1149,718.5C 1172.53,713.44 1194.03,703.94 1213.5,690C 1227.5,678.667 1241.5,667.333 1255.5,656C 1278.87,642.955 1300.87,627.955 1321.5,611C 1334.4,597.665 1346.24,583.499 1357,568.5C 1366.35,549.648 1381.35,537.982 1402,533.5C 1405.35,534.18 1407.35,536.18 1408,539.5C 1410.5,559.522 1413.17,579.522 1416,599.5C 1416.81,602.446 1418.14,605.112 1420,607.5C 1435.89,619.057 1452.06,630.223 1468.5,641C 1471.67,644.167 1474.83,647.333 1478,650.5C 1489.73,673.78 1505.23,694.28 1524.5,712C 1528.09,714.713 1531.59,717.547 1535,720.5C 1536.5,724.039 1536.84,727.705 1536,731.5C 1533.67,736.167 1531.33,740.833 1529,745.5C 1517.46,761.405 1506.3,777.572 1495.5,794C 1493.72,794.704 1491.89,795.204 1490,795.5C 1472.53,793.907 1455.03,792.573 1437.5,791.5C 1433.41,791.448 1429.41,791.948 1425.5,793C 1407.03,807.072 1388.03,820.405 1368.5,833C 1356.73,842.283 1351.57,854.45 1353,869.5C 1351.09,916.866 1354.43,963.866 1363,1010.5C 1365.32,1022.47 1368.66,1034.13 1373,1045.5C 1387.65,1081.14 1405.65,1114.8 1427,1146.5C 1449.44,1181.04 1473.1,1214.71 1498,1247.5C 1504.67,1255.51 1512.5,1262.01 1521.5,1267C 1532.23,1270.89 1543.07,1274.39 1554,1277.5C 1555.64,1293.41 1555.97,1309.41 1555,1325.5C 1554.17,1326.33 1553.33,1327.17 1552.5,1328C 1531.82,1328.68 1511.15,1328.35 1490.5,1327C 1481.3,1321.81 1472.64,1315.81 1464.5,1309C 1432.27,1279.11 1404.1,1245.95 1380,1209.5C 1360.87,1185.37 1339.37,1163.54 1315.5,1144C 1296.17,1130 1276.83,1116 1257.5,1102C 1230.5,1085.22 1201.83,1071.88 1171.5,1062C 1160.51,1058.7 1149.34,1056.53 1138,1055.5C 1133.43,1056.37 1129.27,1058.2 1125.5,1061C 1110.65,1075.84 1099.15,1093.01 1091,1112.5C 1082.44,1134.28 1074.44,1156.28 1067,1178.5C 1059.67,1205.98 1051.84,1233.31 1043.5,1260.5C 1044.1,1262.86 1045.1,1265.02 1046.5,1267C 1053.5,1271.33 1060.5,1275.67 1067.5,1280C 1070.11,1281.94 1071.94,1284.44 1073,1287.5C 1075.29,1299.96 1074.63,1312.3 1071,1324.5C 1070.17,1325.33 1069.33,1326.17 1068.5,1327C 1046.17,1327.73 1023.83,1328.06 1001.5,1328C 996.61,1327.71 992.443,1325.87 989,1322.5C 986.584,1318 983.917,1313.67 981,1309.5C 977.525,1304.22 974.858,1298.55 973,1292.5C 972.979,1208.5 972.979,1124.5 973,1040.5C 923.479,1030.89 873.646,1022.72 823.5,1016C 815.13,1014.32 806.797,1012.49 798.5,1010.5C 796.42,1010.69 794.92,1011.69 794,1013.5C 768.685,1063.47 742.352,1112.8 715,1161.5C 712.149,1167.72 710.316,1174.22 709.5,1181C 717.054,1210.77 729.721,1238.1 747.5,1263C 749.087,1263.86 750.754,1264.53 752.5,1265C 761.833,1265.33 771.167,1265.67 780.5,1266C 792.318,1267.49 802.485,1272.33 811,1280.5C 813.836,1286.5 815.502,1292.84 816,1299.5C 817.112,1308.17 817.778,1316.84 818,1325.5C 810.434,1327.28 802.601,1328.12 794.5,1328C 768.833,1328.67 743.167,1328.67 717.5,1328C 712.495,1317.66 706.662,1307.83 700,1298.5C 674.42,1262.34 649.087,1226.01 624,1189.5C 621.511,1176.3 620.345,1162.97 620.5,1149.5C 623.159,1116.14 622.992,1082.81 620,1049.5C 619.02,1037.93 616.02,1026.93 611,1016.5C 607.345,1009.93 601.845,1007.76 594.5,1010C 588.277,1011.78 582.277,1014.11 576.5,1017C 556.338,1027.91 536.672,1039.58 517.5,1052C 471.465,1083.02 426.132,1115.02 381.5,1148C 368.531,1159.63 358.697,1173.46 352,1189.5C 344.742,1213.2 339.075,1237.2 335,1261.5C 341,1266.17 347,1270.83 353,1275.5C 354.586,1277.67 355.92,1280 357,1282.5C 360.64,1296.95 362.306,1311.62 362,1326.5C 361.5,1327 361,1327.5 360.5,1328C 331.151,1328.84 301.817,1328.51 272.5,1327C 270.114,1325.11 268.947,1322.61 269,1319.5C 265.299,1292.06 262.132,1264.56 259.5,1237C 259.98,1216.25 264.48,1196.41 273,1177.5C 283.65,1151.2 295.65,1125.53 309,1100.5C 322.836,1078.16 337.169,1056.16 352,1034.5C 372.82,999.19 390.154,962.19 404,923.5C 414,896.833 424,870.167 434,843.5C 445.346,816.468 459.013,790.802 475,766.5C 483.137,756.03 491.637,745.863 500.5,736C 496.758,732.616 492.424,729.95 487.5,728C 432.481,714.767 388.647,685.267 356,639.5C 332.31,606.126 313.31,570.126 299,531.5C 285.465,490.562 272.132,449.562 259,408.5C 244.837,375.368 219.67,357.201 183.5,354C 169.16,353.729 154.827,353.729 140.5,354C 123.595,350.75 114.928,340.416 114.5,323C 116.104,307.726 124.438,298.393 139.5,295C 143.312,294.205 146.979,293.371 150.5,292.5 Z"/></g>
</svg>
