<?xml version="1.0" encoding="UTF-8"?>
<!DOCTYPE svg PUBLIC "-//W3C//DTD SVG 1.1//EN" "http://www.w3.org/Graphics/SVG/1.1/DTD/svg11.dtd">
<svg xmlns="http://www.w3.org/2000/svg" version="1.1" width="6710px" height="3598px" style="shape-rendering:geometricPrecision; text-rendering:geometricPrecision; image-rendering:optimizeQuality; fill-rule:evenodd; clip-rule:evenodd" xmlns:xlink="http://www.w3.org/1999/xlink">
<g><path style="opacity:0.26" fill="#fdd908" d="M -0.5,-0.5 C 2236.17,-0.5 4472.83,-0.5 6709.5,-0.5C 6709.5,1198.83 6709.5,2398.17 6709.5,3597.5C 4472.83,3597.5 2236.17,3597.5 -0.5,3597.5C -0.5,2398.17 -0.5,1198.83 -0.5,-0.5 Z"/></g>
<g><path style="opacity:1" fill="#353532" d="M 2905.5,799.5 C 2907.21,800.738 2909.21,801.405 2911.5,801.5C 2914.17,802.167 2916.83,802.833 2919.5,803.5C 2921.76,805.38 2924.42,806.38 2927.5,806.5C 2957.79,820.291 2978.96,842.625 2991,873.5C 3002.82,910.613 3014.82,947.613 3027,984.5C 3038.77,1014.07 3054.11,1041.4 3073,1066.5C 3107.82,1105.45 3151.32,1121.95 3203.5,1116C 3278.05,1104.1 3353.05,1099.93 3428.5,1103.5C 3435.98,1104.67 3443.64,1105.33 3451.5,1105.5C 3471.46,1107.55 3491.46,1110.38 3511.5,1114C 3565.98,1124.18 3619.98,1136.35 3673.5,1150.5C 3677.5,1152.61 3681.84,1153.94 3686.5,1154.5C 3690.48,1155.49 3694.48,1156.49 3698.5,1157.5C 3718.26,1152.31 3736.59,1144.15 3753.5,1133C 3764.13,1124.01 3774.79,1115.01 3785.5,1106C 3802.74,1095.37 3819.74,1084.37 3836.5,1073C 3854.18,1056.98 3869.35,1038.81 3882,1018.5C 3886.12,1013.53 3890.96,1009.53 3896.5,1006.5C 3898.97,1006.25 3900.97,1005.25 3902.5,1003.5C 3906.1,1001.69 3909.93,1000.35 3914,999.5C 3916.32,1000.49 3917.99,1002.15 3919,1004.5C 3920.8,1022.96 3923.3,1041.29 3926.5,1059.5C 3928.32,1061.82 3930.32,1063.98 3932.5,1066C 3948.72,1075.94 3964.05,1087.11 3978.5,1099.5C 3983.87,1109.4 3989.7,1119.07 3996,1128.5C 4005.67,1139.5 4016,1149.83 4027,1159.5C 4027.67,1162.83 4027.67,1166.17 4027,1169.5C 4020.41,1181.02 4013.08,1192.02 4005,1202.5C 4001.95,1208.11 3998.78,1213.61 3995.5,1219C 3993.44,1220.7 3991.11,1221.86 3988.5,1222.5C 3973.7,1220.92 3958.86,1219.59 3944,1218.5C 3940.1,1218.52 3936.26,1219.02 3932.5,1220C 3917.54,1232.15 3901.87,1243.32 3885.5,1253.5C 3881.1,1257.73 3877.27,1262.4 3874,1267.5C 3873.08,1270.1 3872.41,1272.77 3872,1275.5C 3868.54,1327.29 3873.21,1378.29 3886,1428.5C 3889.1,1434.25 3891.6,1440.25 3893.5,1446.5C 3893.8,1448.4 3894.46,1450.07 3895.5,1451.5C 3907.33,1475.48 3920.5,1498.82 3935,1521.5C 3954.35,1550.87 3974.68,1579.54 3996,1607.5C 4001.24,1613.41 4007.07,1618.58 4013.5,1623C 4022.82,1627.08 4032.49,1630.08 4042.5,1632C 4043.06,1632.38 4043.39,1632.88 4043.5,1633.5C 4043.81,1647.25 4043.48,1660.91 4042.5,1674.5C 4030.75,1676.45 4018.75,1677.11 4006.5,1676.5C 4001.26,1674.55 3995.6,1673.88 3989.5,1674.5C 3987.91,1673.85 3986.25,1673.35 3984.5,1673C 3961.21,1655.52 3940.71,1635.35 3923,1612.5C 3910.72,1595.22 3898.05,1578.22 3885,1561.5C 3872.44,1547.27 3858.94,1534.11 3844.5,1522C 3829.19,1510.7 3813.85,1499.36 3798.5,1488C 3786.07,1480.85 3773.74,1473.52 3761.5,1466C 3744.07,1458.95 3726.4,1452.28 3708.5,1446C 3700.23,1444.46 3691.9,1444.13 3683.5,1445C 3674.29,1451.21 3666.79,1459.05 3661,1468.5C 3654.48,1480.66 3648.48,1492.99 3643,1505.5C 3638.37,1518.78 3633.7,1532.11 3629,1545.5C 3625.52,1557.42 3622.35,1569.42 3619.5,1581.5C 3618.08,1583.51 3617.41,1585.85 3617.5,1588.5C 3613.99,1598.23 3610.99,1608.23 3608.5,1618.5C 3609.26,1620.44 3610.26,1622.27 3611.5,1624C 3617.5,1627.67 3623.5,1631.33 3629.5,1635C 3631.38,1636.54 3632.88,1638.38 3634,1640.5C 3635.14,1651.32 3634.47,1661.98 3632,1672.5C 3631.5,1673 3631,1673.5 3630.5,1674C 3614.97,1674.22 3599.47,1675.06 3584,1676.5C 3580.5,1676.33 3577,1676.17 3573.5,1676C 3571.38,1674.81 3569.04,1674.14 3566.5,1674C 3559.05,1665.62 3553.22,1656.12 3549,1645.5C 3549.15,1573.83 3548.98,1502.16 3548.5,1430.5C 3547.69,1430.19 3547.03,1429.69 3546.5,1429C 3512.81,1423.89 3479.14,1418.73 3445.5,1413.5C 3441.63,1411.57 3437.29,1410.9 3432.5,1411.5C 3424.74,1410.64 3417.08,1409.31 3409.5,1407.5C 3405.79,1405.24 3401.79,1404.57 3397.5,1405.5C 3396.87,1406.42 3396.54,1407.42 3396.5,1408.5C 3374.55,1450.4 3352.05,1492.07 3329,1533.5C 3325.27,1541.56 3324.27,1549.89 3326,1558.5C 3333.52,1580.42 3343.68,1600.92 3356.5,1620C 3358.09,1620.86 3359.75,1621.53 3361.5,1622C 3373.71,1621.72 3385.71,1623.05 3397.5,1626C 3402.69,1628.42 3407.35,1631.59 3411.5,1635.5C 3412.61,1637.39 3413.44,1639.39 3414,1641.5C 3415.07,1651.36 3416.24,1661.19 3417.5,1671C 3417.01,1672.14 3416.68,1673.31 3416.5,1674.5C 3409.42,1673.87 3402.75,1674.54 3396.5,1676.5C 3374.82,1676.83 3353.16,1676.5 3331.5,1675.5C 3328.71,1667.92 3324.88,1660.92 3320,1654.5C 3297.58,1621.99 3274.91,1589.66 3252,1557.5C 3250.53,1546.21 3249.7,1534.88 3249.5,1523.5C 3250.52,1498.17 3250.68,1472.84 3250,1447.5C 3248.91,1434.36 3245.91,1421.69 3241,1409.5C 3236.51,1404.74 3231.01,1403.24 3224.5,1405C 3221.61,1406.03 3218.78,1407.2 3216,1408.5C 3197.34,1418.08 3179.17,1428.58 3161.5,1440C 3122.14,1466.35 3083.47,1493.68 3045.5,1522C 3033.88,1532.61 3025.04,1545.11 3019,1559.5C 3014.39,1578.48 3009.89,1597.48 3005.5,1616.5C 3005.83,1617.5 3006.17,1618.5 3006.5,1619.5C 3011.24,1623.29 3016.08,1626.95 3021,1630.5C 3023.06,1632.9 3024.73,1635.57 3026,1638.5C 3027.21,1648.83 3028.38,1659.16 3029.5,1669.5C 3029.33,1671.71 3028.66,1673.71 3027.5,1675.5C 3002.46,1677 2977.46,1676.5 2952.5,1674C 2951,1672.51 2950.16,1670.68 2950,1668.5C 2948.53,1650.41 2946.37,1632.41 2943.5,1614.5C 2942.9,1606.51 2942.57,1598.51 2942.5,1590.5C 2943.24,1580.3 2945.07,1570.3 2948,1560.5C 2958.66,1533.51 2970.66,1507.18 2984,1481.5C 2997.92,1459.24 3012.25,1437.24 3027,1415.5C 3040.41,1390.93 3052.08,1365.59 3062,1339.5C 3073.06,1308.64 3084.73,1277.98 3097,1247.5C 3102.16,1237 3107.49,1226.66 3113,1216.5C 3116.33,1211.17 3119.67,1205.83 3123,1200.5C 3131.2,1191.26 3139.03,1181.76 3146.5,1172C 3146.24,1170.74 3145.57,1169.74 3144.5,1169C 3141.62,1168.04 3138.96,1166.71 3136.5,1165C 3089.57,1153.95 3052.07,1128.78 3024,1089.5C 3004.13,1061.1 2987.97,1030.76 2975.5,998.5C 2973.83,993.125 2972.16,987.792 2970.5,982.5C 2969.73,978.851 2968.4,975.518 2966.5,972.5C 2966.35,967.711 2965.01,963.378 2962.5,959.5C 2956.6,940.327 2950.6,921.327 2944.5,902.5C 2944.59,899.848 2943.92,897.515 2942.5,895.5C 2931.61,868.728 2911.95,852.894 2883.5,848C 2871.53,846.194 2859.53,846.027 2847.5,847.5C 2829.82,847.157 2820.16,838.157 2818.5,820.5C 2819.54,809.918 2824.87,802.418 2834.5,798C 2858.39,793.152 2882.05,793.652 2905.5,799.5 Z"/></g>
<g><path style="opacity:1" fill="#a08d22" d="M 2905.5,799.5 C 2908.01,799.054 2910.01,799.72 2911.5,801.5C 2909.21,801.405 2907.21,800.738 2905.5,799.5 Z"/></g>
<g><path style="opacity:1" fill="#a18e1f" d="M 2919.5,803.5 C 2922.58,803.62 2925.24,804.62 2927.5,806.5C 2924.42,806.38 2921.76,805.38 2919.5,803.5 Z"/></g>
<g><path style="opacity:1" fill="#998721" d="M 2942.5,895.5 C 2943.92,897.515 2944.59,899.848 2944.5,902.5C 2943.08,900.485 2942.41,898.152 2942.5,895.5 Z"/></g>
<g><path style="opacity:1" fill="#b39d1c" d="M 2962.5,959.5 C 2965.01,963.378 2966.35,967.711 2966.5,972.5C 2964.79,968.365 2963.46,964.032 2962.5,959.5 Z"/></g>
<g><path style="opacity:1" fill="#b39d1d" d="M 2970.5,982.5 C 2972.16,987.792 2973.83,993.125 2975.5,998.5C 2972.34,993.774 2970.67,988.441 2970.5,982.5 Z"/></g>
<g><path style="opacity:1" fill="#726629" d="M 3902.5,1003.5 C 3900.97,1005.25 3898.97,1006.25 3896.5,1006.5C 3898.03,1004.75 3900.03,1003.75 3902.5,1003.5 Z"/></g>
<g><path style="opacity:1" fill="#d2b614" d="M 3428.5,1103.5 C 3436.57,1102.87 3444.24,1103.53 3451.5,1105.5C 3443.64,1105.33 3435.98,1104.67 3428.5,1103.5 Z"/></g>
<g><path style="opacity:1" fill="#a99420" d="M 3673.5,1150.5 C 3676.96,1150.57 3680.29,1151.23 3683.5,1152.5C 3685.03,1152.64 3686.03,1153.31 3686.5,1154.5C 3681.84,1153.94 3677.5,1152.61 3673.5,1150.5 Z"/></g>
<g><path style="opacity:1" fill="#baa21c" d="M 3409.5,1407.5 C 3406.45,1407.64 3403.45,1407.3 3400.5,1406.5C 3398.93,1406.75 3397.59,1407.42 3396.5,1408.5C 3396.54,1407.42 3396.87,1406.42 3397.5,1405.5C 3401.79,1404.57 3405.79,1405.24 3409.5,1407.5 Z"/></g>
<g><path style="opacity:1" fill="#675d2b" d="M 3432.5,1411.5 C 3437.29,1410.9 3441.63,1411.57 3445.5,1413.5C 3440.95,1413.38 3436.62,1412.71 3432.5,1411.5 Z"/></g>
<g><path style="opacity:1" fill="#887924" d="M 3893.5,1446.5 C 3895.21,1447.64 3895.88,1449.3 3895.5,1451.5C 3894.46,1450.07 3893.8,1448.4 3893.5,1446.5 Z"/></g>
<g><path style="opacity:1" fill="#a9941c" d="M 3619.5,1581.5 C 3619.59,1584.15 3618.92,1586.49 3617.5,1588.5C 3617.41,1585.85 3618.08,1583.51 3619.5,1581.5 Z"/></g>
<g><path style="opacity:1" fill="#bfa61a" d="M 2942.5,1590.5 C 2942.57,1598.51 2942.9,1606.51 2943.5,1614.5C 2942.18,1610.89 2941.51,1606.89 2941.5,1602.5C 2941.5,1598.32 2941.83,1594.32 2942.5,1590.5 Z"/></g>
<g><path style="opacity:1" fill="#a6921a" d="M 4043.5,1633.5 C 4044.17,1640.16 4044.5,1646.99 4044.5,1654C 4044.5,1661.2 4043.83,1668.03 4042.5,1674.5C 4043.48,1660.91 4043.81,1647.25 4043.5,1633.5 Z"/></g>
<g><path style="opacity:1" fill="#9e8b1c" d="M 3416.5,1674.5 C 3409.93,1675.2 3403.27,1675.87 3396.5,1676.5C 3402.75,1674.54 3409.42,1673.87 3416.5,1674.5 Z"/></g>
<g><path style="opacity:1" fill="#9c891d" d="M 3989.5,1674.5 C 3995.6,1673.88 4001.26,1674.55 4006.5,1676.5C 4000.73,1675.87 3995.07,1675.21 3989.5,1674.5 Z"/></g>
<g><path style="opacity:1" fill="#353532" d="M 2423.5,1767.5 C 2449.49,1768.25 2475.49,1768.75 2501.5,1769C 2503.98,1771.28 2504.15,1773.78 2502,1776.5C 2496.83,1781.67 2491.67,1786.83 2486.5,1792C 2451.93,1819.29 2416.6,1845.63 2380.5,1871C 2366.66,1879.75 2353,1888.75 2339.5,1898C 2333.93,1901.25 2327.93,1902.75 2321.5,1902.5C 2321.34,1900.8 2321.51,1899.13 2322,1897.5C 2345.07,1855.02 2368.41,1812.68 2392,1770.5C 2392.5,1770 2393,1769.5 2393.5,1769C 2403.68,1768.83 2413.68,1768.33 2423.5,1767.5 Z"/></g>
<g><path style="opacity:1" fill="#353532" d="M 3157.5,1768.5 C 3192.17,1768.33 3226.83,1768.5 3261.5,1769C 3263.93,1772.62 3264.1,1776.45 3262,1780.5C 3209.75,1825.07 3153.92,1864.9 3094.5,1900C 3091.18,1900.5 3087.85,1900.67 3084.5,1900.5C 3084.25,1897.68 3084.75,1895.01 3086,1892.5C 3109.9,1852.69 3132.24,1812.02 3153,1770.5C 3154.62,1769.9 3156.12,1769.23 3157.5,1768.5 Z"/></g>
<g><path style="opacity:1" fill="#353532" d="M 1695.5,1772.5 C 1758.86,1774.25 1822.2,1774.92 1885.5,1774.5C 1886.6,1968.5 1887.77,2162.5 1889,2356.5C 1890.45,2361.4 1892.45,2366.07 1895,2370.5C 1902.66,2377.82 1911.16,2383.99 1920.5,2389C 1932.61,2389.83 1944.61,2391.5 1956.5,2394C 1958.03,2396.88 1957.36,2399.21 1954.5,2401C 1866.51,2402.74 1778.51,2402.9 1690.5,2401.5C 1689.14,2399.69 1689.47,2398.19 1691.5,2397C 1705.24,2393.48 1718.9,2389.82 1732.5,2386C 1742.14,2382.1 1749.97,2375.93 1756,2367.5C 1757.98,2360.24 1759.65,2352.91 1761,2345.5C 1762.47,2172.17 1762.8,1998.84 1762,1825.5C 1757.75,1804.58 1745.25,1791.41 1724.5,1786C 1715.31,1784.73 1706.31,1782.73 1697.5,1780C 1694.38,1778.25 1693.71,1775.75 1695.5,1772.5 Z"/></g>
<g><path style="opacity:1" fill="#353532" d="M 2599.5,1772.5 C 2661,1774.21 2722.5,1774.55 2784,1773.5C 2786.26,1773.44 2788.26,1774.11 2790,1775.5C 2790.07,1967.5 2790.74,2159.5 2792,2351.5C 2792.95,2361.38 2796.78,2369.88 2803.5,2377C 2819.61,2388.53 2837.61,2393.53 2857.5,2392C 2861.81,2395.25 2861.48,2397.92 2856.5,2400C 2845.57,2401.27 2834.57,2401.93 2823.5,2402C 2793,2402.17 2762.5,2402.33 2732,2402.5C 2687.25,2402.68 2642.59,2402.01 2598,2400.5C 2597.24,2397.5 2598.08,2395 2600.5,2393C 2608.45,2391.64 2616.45,2390.64 2624.5,2390C 2635.71,2387.31 2645.54,2382.15 2654,2374.5C 2658.63,2368.58 2661.63,2361.91 2663,2354.5C 2663.33,2340.83 2663.67,2327.17 2664,2313.5C 2664.67,2151.83 2664.67,1990.17 2664,1828.5C 2663.93,1815.73 2659.09,1805.23 2649.5,1797C 2635.71,1787.45 2620.38,1782.45 2603.5,1782C 2599.85,1781.19 2597.51,1779.02 2596.5,1775.5C 2597.34,1774.27 2598.34,1773.27 2599.5,1772.5 Z"/></g>
<g><path style="opacity:1" fill="#353532" d="M 2095.5,1810.5 C 2098.06,1810.45 2100.06,1811.45 2101.5,1813.5C 2092.49,1851.2 2083.33,1888.86 2074,1926.5C 2069.54,1946.47 2065.21,1966.47 2061,1986.5C 2059.41,1993 2056.75,1999 2053,2004.5C 2045.12,2010.57 2040.46,2008.57 2039,1998.5C 2024.71,1937.3 2010.21,1876.13 1995.5,1815C 1995.64,1814.23 1995.98,1813.56 1996.5,1813C 2029.68,1812.9 2062.68,1812.07 2095.5,1810.5 Z"/></g>
<g><path style="opacity:1" fill="#353532" d="M 5049.5,1823.5 C 5055.16,1823.16 5057.83,1825.83 5057.5,1831.5C 5056.86,1851.99 5056.53,1872.49 5056.5,1893C 5056.38,1914.53 5056.88,1936.03 5058,1957.5C 5092.76,1958.33 5127.6,1958.83 5162.5,1959C 5164.99,1961.42 5164.99,1963.76 5162.5,1966C 5128.65,1968.07 5094.82,1967.91 5061,1965.5C 5059.29,1965.44 5057.96,1966.11 5057,1967.5C 5056.23,2085.84 5056.56,2204.17 5058,2322.5C 5057.9,2341.85 5063.23,2359.52 5074,2375.5C 5079.42,2381.59 5085.92,2386.09 5093.5,2389C 5105.11,2390.58 5116.78,2390.91 5128.5,2390C 5141.9,2387.82 5155.23,2385.32 5168.5,2382.5C 5170.32,2382.34 5171.65,2383.01 5172.5,2384.5C 5171.41,2387.09 5169.74,2389.26 5167.5,2391C 5161.16,2394.25 5154.5,2396.58 5147.5,2398C 5125.08,2403.18 5102.42,2406.85 5079.5,2409C 5040.24,2414.3 5003.9,2406.63 4970.5,2386C 4961.25,2378.75 4953.42,2370.25 4947,2360.5C 4938.09,2340.52 4933.09,2319.52 4932,2297.5C 4931.83,2187.5 4931.33,2077.5 4930.5,1967.5C 4928.39,1966.9 4926.23,1966.56 4924,1966.5C 4909.51,1967.57 4895.01,1968.07 4880.5,1968C 4876.58,1967.54 4872.75,1966.71 4869,1965.5C 4865.51,1963.32 4865.67,1961.49 4869.5,1960C 4887.83,1957.94 4906.16,1955.94 4924.5,1954C 4969.82,1946.09 5003.99,1922.26 5027,1882.5C 5031.27,1873.62 5035.27,1864.62 5039,1855.5C 5041.53,1846.23 5043.87,1836.9 5046,1827.5C 5046.69,1825.65 5047.86,1824.32 5049.5,1823.5 Z"/></g>
<g><path style="opacity:1" fill="#353532" d="M 3730.5,1928.5 C 3741.17,1928.33 3751.84,1928.5 3762.5,1929C 3788.97,1935.47 3801.81,1952.3 3801,1979.5C 3799.1,1997.82 3789.6,2010.32 3772.5,2017C 3763.92,2019.16 3755.25,2020.99 3746.5,2022.5C 3745.01,2022.29 3743.84,2021.62 3743,2020.5C 3741.55,2009.37 3738.55,1998.7 3734,1988.5C 3723.33,1976.72 3710.16,1972.55 3694.5,1976C 3686.14,1977.86 3679.14,1982.03 3673.5,1988.5C 3709.23,2019.96 3726.56,2059.63 3725.5,2107.5C 3724.93,2147.05 3710.59,2180.55 3682.5,2208C 3661.84,2225.99 3637.84,2236.99 3610.5,2241C 3587.01,2245.2 3563.34,2246.54 3539.5,2245C 3522.68,2243.3 3506.02,2240.97 3489.5,2238C 3479.63,2244.24 3472.47,2252.74 3468,2263.5C 3465.27,2274.56 3466.27,2285.22 3471,2295.5C 3474.5,2297.67 3477.33,2300.5 3479.5,2304C 3485.32,2307.58 3491.65,2309.58 3498.5,2310C 3539.83,2311.02 3581.16,2311.68 3622.5,2312C 3650.5,2312.33 3677.83,2316.67 3704.5,2325C 3743.96,2340.8 3767.79,2369.64 3776,2411.5C 3784.87,2495.27 3750.04,2552.1 3671.5,2582C 3657.06,2586.55 3642.39,2590.22 3627.5,2593C 3605.25,2596.07 3582.91,2598.4 3560.5,2600C 3512.73,2602.66 3465.73,2597.99 3419.5,2586C 3396.44,2579.93 3377.27,2567.76 3362,2549.5C 3345.63,2527.49 3341.97,2503.49 3351,2477.5C 3361.77,2457.39 3377.61,2442.89 3398.5,2434C 3420.46,2425.84 3443.13,2420.84 3466.5,2419C 3471.64,2418.13 3476.64,2416.8 3481.5,2415C 3472.09,2411.56 3462.42,2408.9 3452.5,2407C 3442.32,2401.41 3432.65,2395.08 3423.5,2388C 3410.31,2376.82 3402.15,2362.65 3399,2345.5C 3397.08,2331.16 3397.08,2316.83 3399,2302.5C 3406.09,2284.86 3417.59,2270.69 3433.5,2260C 3447.62,2250.61 3462.62,2242.77 3478.5,2236.5C 3479.75,2234.99 3479.75,2233.49 3478.5,2232C 3427.16,2214.49 3396.99,2178.99 3388,2125.5C 3380.16,2080.33 3389.49,2039.33 3416,2002.5C 3432.78,1983.02 3453.28,1968.85 3477.5,1960C 3503.64,1951.46 3530.47,1947.29 3558,1947.5C 3568.82,1948.47 3579.65,1949.3 3590.5,1950C 3604.1,1952.73 3617.43,1956.4 3630.5,1961C 3642.66,1967.25 3654.66,1973.75 3666.5,1980.5C 3667.44,1980.39 3668.28,1980.06 3669,1979.5C 3680.88,1960.62 3696.38,1945.45 3715.5,1934C 3720.45,1931.69 3725.45,1929.86 3730.5,1928.5 Z"/></g>
<g><path style="opacity:1" fill="#353532" d="M 2337.5,1948.5 C 2380.97,1946.21 2422.31,1954.37 2461.5,1973C 2501.81,1997.43 2527.64,2032.59 2539,2078.5C 2541.77,2089.02 2543.77,2099.69 2545,2110.5C 2546.59,2129.14 2547.26,2147.81 2547,2166.5C 2546.5,2167 2546,2167.5 2545.5,2168C 2456.17,2168.59 2366.83,2168.43 2277.5,2167.5C 2274.68,2217.95 2279.51,2267.61 2292,2316.5C 2316.7,2395.57 2367.2,2418.24 2443.5,2384.5C 2460.74,2372.43 2474.24,2357.09 2484,2338.5C 2486.86,2330.94 2489.52,2323.27 2492,2315.5C 2494.46,2304.2 2496.8,2292.87 2499,2281.5C 2503.65,2276.62 2508.49,2276.62 2513.5,2281.5C 2532.27,2301.69 2534.44,2323.69 2520,2347.5C 2510.72,2362.78 2498.22,2374.61 2482.5,2383C 2440.12,2406.01 2394.79,2414.67 2346.5,2409C 2312.95,2406.95 2280.95,2398.95 2250.5,2385C 2236.81,2377.48 2224.15,2368.48 2212.5,2358C 2193.35,2339.24 2178.52,2317.41 2168,2292.5C 2139.68,2208.2 2143.02,2125.2 2178,2043.5C 2208,1991.56 2252.84,1960.72 2312.5,1951C 2320.98,1950.09 2329.31,1949.26 2337.5,1948.5 Z"/></g>
<g><path style="opacity:1" fill="#353532" d="M 3096.5,1948.5 C 3116.19,1948.23 3135.85,1948.73 3155.5,1950C 3202.47,1957.39 3241.3,1978.89 3272,2014.5C 3293.77,2048.15 3305.77,2085.15 3308,2125.5C 3309.24,2139.15 3309.57,2152.82 3309,2166.5C 3308.25,2167.13 3307.42,2167.63 3306.5,2168C 3217.49,2168.58 3128.49,2168.58 3039.5,2168C 3038.34,2185.44 3038.51,2202.94 3040,2220.5C 3042.01,2244.58 3044.68,2268.58 3048,2292.5C 3053,2314.19 3060,2335.19 3069,2355.5C 3094.62,2394.94 3130.46,2408.44 3176.5,2396C 3194.8,2393 3210.3,2384.84 3223,2371.5C 3229.58,2362.68 3235.91,2353.68 3242,2344.5C 3246.24,2336.03 3249.9,2327.37 3253,2318.5C 3255.75,2304.92 3257.92,2291.26 3259.5,2277.5C 3268.12,2275.45 3275.29,2277.78 3281,2284.5C 3287.2,2294.61 3290.7,2305.61 3291.5,2317.5C 3290.37,2331.08 3285.87,2343.42 3278,2354.5C 3260.51,2375 3239.01,2389.5 3213.5,2398C 3174.88,2409.27 3135.55,2412.6 3095.5,2408C 3000.66,2398.69 2941.83,2347.85 2919,2255.5C 2905.76,2190.34 2909.76,2126.34 2931,2063.5C 2957.7,2001.19 3004.53,1963.69 3071.5,1951C 3079.98,1950.09 3088.31,1949.26 3096.5,1948.5 Z"/></g>
<g><path style="opacity:1" fill="#353532" d="M 4025.5,1948.5 C 4074.69,1943.77 4121.69,1951.61 4166.5,1972C 4185.24,1982.6 4199.07,1997.77 4208,2017.5C 4216.53,2038.28 4220.87,2059.94 4221,2082.5C 4221.02,2171.52 4221.69,2260.52 4223,2349.5C 4224.83,2359.67 4227.67,2369.51 4231.5,2379C 4234.13,2380.63 4236.46,2382.63 4238.5,2385C 4242.09,2386.53 4245.76,2387.86 4249.5,2389C 4257.51,2389.96 4265.51,2390.96 4273.5,2392C 4276.66,2396.5 4275.66,2399.84 4270.5,2402C 4212.83,2402.67 4155.17,2402.67 4097.5,2402C 4097.94,2380.56 4097.44,2359.06 4096,2337.5C 4095.67,2333.83 4095.33,2330.17 4095,2326.5C 4093.99,2325.66 4092.82,2325.33 4091.5,2325.5C 4079.15,2372.01 4049.15,2399.17 4001.5,2407C 3955.81,2416.41 3915.15,2406.41 3879.5,2377C 3859.24,2355.64 3847.74,2330.14 3845,2300.5C 3842.74,2277.32 3845.07,2254.65 3852,2232.5C 3860.4,2213.6 3873.56,2198.93 3891.5,2188.5C 3911.16,2178.22 3931.83,2170.39 3953.5,2165C 4000.55,2159.02 4047.72,2155.19 4095,2153.5C 4095.67,2114.17 4095.67,2074.83 4095,2035.5C 4096.69,2013.28 4092.03,1992.62 4081,1973.5C 4071.25,1958.91 4057.75,1953.75 4040.5,1958C 4030.81,1959.85 4022.14,1963.85 4014.5,1970C 4009.98,1975.19 4005.81,1980.69 4002,1986.5C 3996.38,2000.61 3993.04,2015.28 3992,2030.5C 3992.15,2049.9 3991.32,2069.07 3989.5,2088C 3964.3,2089.31 3939.63,2086.31 3915.5,2079C 3884.16,2066.48 3872.99,2043.98 3882,2011.5C 3890.44,1992.72 3903.94,1978.89 3922.5,1970C 3955.41,1955.72 3989.75,1948.55 4025.5,1948.5 Z"/></g>
<g><path style="opacity:1" fill="#353532" d="M 4625.5,1948.5 C 4658.54,1946.93 4689.2,1954.43 4717.5,1971C 4736.71,1984.26 4750.54,2001.76 4759,2023.5C 4764.9,2041.75 4768.9,2060.42 4771,2079.5C 4771.33,2156.17 4771.67,2232.83 4772,2309.5C 4772.13,2325.9 4773.13,2342.23 4775,2358.5C 4777.18,2369.76 4782.68,2378.92 4791.5,2386C 4793.96,2387.56 4796.62,2388.56 4799.5,2389C 4808.14,2389.98 4816.81,2390.65 4825.5,2391C 4830.08,2396.1 4829.08,2399.77 4822.5,2402C 4763.93,2402.83 4705.43,2402.66 4647,2401.5C 4646.67,2303.17 4646.33,2204.83 4646,2106.5C 4645.64,2082.78 4644.31,2059.11 4642,2035.5C 4640.58,2018.39 4634.75,2003.06 4624.5,1989.5C 4620.6,1985.43 4616.27,1981.93 4611.5,1979C 4597.05,1974.54 4582.38,1973.54 4567.5,1976C 4555.42,1980.08 4545.59,1987.25 4538,1997.5C 4522.2,2020.24 4513.53,2045.58 4512,2073.5C 4510.78,2101.48 4510.11,2129.48 4510,2157.5C 4509.33,2220.17 4509.33,2282.83 4510,2345.5C 4513.06,2367.79 4525.23,2382.62 4546.5,2390C 4556.52,2391.06 4566.52,2392.22 4576.5,2393.5C 4576.95,2396.36 4576.28,2398.86 4574.5,2401C 4569.28,2402.23 4563.95,2402.9 4558.5,2403C 4477.16,2403.55 4395.83,2403.22 4314.5,2402C 4312.03,2400.41 4311.87,2398.58 4314,2396.5C 4315.42,2395.54 4316.92,2394.71 4318.5,2394C 4327.8,2392.45 4337.14,2391.12 4346.5,2390C 4366.63,2385.2 4378.47,2372.7 4382,2352.5C 4383.64,2240.51 4383.97,2128.51 4383,2016.5C 4382.9,1994.09 4372.4,1979.26 4351.5,1972C 4339.6,1969.45 4327.6,1967.45 4315.5,1966C 4311.74,1964.23 4311.08,1961.9 4313.5,1959C 4378.5,1958.33 4443.5,1958.33 4508.5,1959C 4509.69,1968.6 4509.69,1978.27 4508.5,1988C 4508.84,2001.02 4510,2013.85 4512,2026.5C 4513.38,2025.45 4514.38,2024.12 4515,2022.5C 4519.85,2008.46 4526.52,1995.46 4535,1983.5C 4544.16,1973 4554.99,1964.83 4567.5,1959C 4578.06,1956.03 4588.73,1953.36 4599.5,1951C 4608.3,1950.03 4616.97,1949.2 4625.5,1948.5 Z"/></g>
<g><path style="opacity:1" fill="#fdd908" d="M 2343.5,1957.5 C 2360.02,1955.55 2375.02,1959.38 2388.5,1969C 2397.09,1978 2403.26,1988.5 2407,2000.5C 2412.27,2016.4 2415.27,2032.74 2416,2049.5C 2418.96,2084.42 2421.13,2119.42 2422.5,2154.5C 2421.96,2155.75 2421.29,2156.91 2420.5,2158C 2372.83,2158.24 2325.16,2158.74 2277.5,2159.5C 2275.53,2112.65 2279.36,2066.32 2289,2020.5C 2294.22,2005.57 2301.22,1991.57 2310,1978.5C 2319.27,1968.29 2330.44,1961.29 2343.5,1957.5 Z"/></g>
<g><path style="opacity:1" fill="#fdd908" d="M 3103.5,1957.5 C 3135.86,1955.08 3157.36,1969.08 3168,1999.5C 3178.97,2039.56 3183.8,2080.39 3182.5,2122C 3182.49,2134.56 3181.82,2146.89 3180.5,2159C 3132.93,2159.51 3085.43,2159.01 3038,2157.5C 3037.88,2115.84 3041.54,2074.51 3049,2033.5C 3052.34,2022.15 3055.67,2010.82 3059,1999.5C 3067.31,1978.35 3082.15,1964.35 3103.5,1957.5 Z"/></g>
<g><path style="opacity:1" fill="#fcd908" d="M 3548.5,1957.5 C 3572.54,1956.09 3589.04,1966.42 3598,1988.5C 3603.09,2003.44 3606.75,2018.77 3609,2034.5C 3614.07,2084.63 3613.07,2134.63 3606,2184.5C 3603.78,2198.51 3598.44,2211.18 3590,2222.5C 3579.62,2232.57 3567.12,2237.24 3552.5,2236.5C 3540.04,2237.51 3529.54,2233.51 3521,2224.5C 3516.89,2218.61 3513.55,2212.28 3511,2205.5C 3506.06,2188.81 3502.39,2171.81 3500,2154.5C 3498.1,2119.83 3498.1,2085.17 3500,2050.5C 3501.85,2030.22 3505.18,2010.22 3510,1990.5C 3515.67,1977.83 3524.51,1967.99 3536.5,1961C 3540.48,1959.33 3544.48,1958.16 3548.5,1957.5 Z"/></g>
<g><path style="opacity:1" fill="#fcd908" d="M 4074.5,2163.5 C 4081.42,2163.19 4088.26,2163.52 4095,2164.5C 4095.67,2202.83 4095.67,2241.17 4095,2279.5C 4091.98,2295.57 4088.65,2311.57 4085,2327.5C 4077.07,2346.18 4065.57,2362.35 4050.5,2376C 4037.11,2385.28 4022.44,2388.28 4006.5,2385C 3998.27,2382.11 3991.77,2376.94 3987,2369.5C 3979.89,2354.66 3975.56,2338.99 3974,2322.5C 3971.6,2300.23 3970.93,2277.89 3972,2255.5C 3973.46,2240.84 3976.46,2226.51 3981,2212.5C 3991.65,2184.2 4012.15,2169.37 4042.5,2168C 4053.3,2166.38 4063.96,2164.88 4074.5,2163.5 Z"/></g>
<g><path style="opacity:1" fill="#fdd908" d="M 3548.5,2420.5 C 3578.21,2420.69 3607.88,2421.85 3637.5,2424C 3657.11,2426.95 3670.94,2437.45 3679,2455.5C 3684.9,2467.81 3687.4,2480.81 3686.5,2494.5C 3686.18,2532.3 3668.85,2559.13 3634.5,2575C 3598.23,2588.05 3560.9,2593.05 3522.5,2590C 3475.38,2585.21 3449.21,2559.38 3444,2512.5C 3441.71,2492.43 3445.05,2473.43 3454,2455.5C 3466.2,2437 3483.36,2426.17 3505.5,2423C 3519.97,2421.96 3534.3,2421.13 3548.5,2420.5 Z"/></g>
<g><path style="opacity:1" fill="#383732" d="M 3936.5,2518.5 C 3965.77,2515.07 3988.94,2525.07 4006,2548.5C 4008.25,2552.49 4010.08,2556.66 4011.5,2561C 4011.36,2561.77 4011.02,2562.44 4010.5,2563C 4006.09,2563.7 4001.76,2563.36 3997.5,2562C 3993.06,2557.62 3989.23,2552.79 3986,2547.5C 3972.14,2535.32 3955.97,2530.82 3937.5,2534C 3913.41,2539.95 3898.57,2555.12 3893,2579.5C 3889.22,2604.5 3896.72,2625.34 3915.5,2642C 3937.73,2654.93 3959.73,2654.6 3981.5,2641C 3986.5,2635.33 3991.5,2629.67 3996.5,2624C 4000.68,2621.06 4005.34,2619.89 4010.5,2620.5C 4006.7,2639.8 3995.7,2653.3 3977.5,2661C 3958.3,2667.99 3938.97,2668.32 3919.5,2662C 3896.95,2651.42 3883.12,2633.92 3878,2609.5C 3871.98,2577.11 3881.48,2550.61 3906.5,2530C 3915.66,2523.89 3925.66,2520.06 3936.5,2518.5 Z"/></g>
<g><path style="opacity:1" fill="#3a3832" d="M 4057.5,2518.5 C 4062.83,2518.5 4068.17,2518.5 4073.5,2518.5C 4073.5,2540.5 4073.5,2562.5 4073.5,2584.5C 4101.83,2584.5 4130.17,2584.5 4158.5,2584.5C 4158.5,2562.5 4158.5,2540.5 4158.5,2518.5C 4163.84,2518.33 4169.18,2518.5 4174.5,2519C 4175,2519.5 4175.5,2520 4176,2520.5C 4175.99,2568.83 4175.49,2617.17 4174.5,2665.5C 4169.3,2666.81 4164.14,2666.81 4159,2665.5C 4158.5,2643.84 4158.33,2622.17 4158.5,2600.5C 4130.49,2600.35 4102.49,2600.18 4074.5,2600C 4073.7,2604.08 4073.2,2608.25 4073,2612.5C 4072.67,2630.17 4072.33,2647.83 4072,2665.5C 4067.26,2666.47 4062.43,2666.8 4057.5,2666.5C 4056.95,2617.1 4056.95,2567.76 4057.5,2518.5 Z"/></g>
<g><path style="opacity:1" fill="#373632" d="M 4274.5,2518.5 C 4281.51,2518.33 4288.51,2518.5 4295.5,2519C 4296.33,2519.83 4297.17,2520.67 4298,2521.5C 4317.08,2568.3 4336.75,2614.97 4357,2661.5C 4357.49,2663.13 4357.66,2664.8 4357.5,2666.5C 4352.16,2666.67 4346.82,2666.5 4341.5,2666C 4340.33,2664.83 4339.17,2663.67 4338,2662.5C 4333.06,2649.67 4327.72,2637 4322,2624.5C 4316.58,2623.84 4311.08,2623.51 4305.5,2623.5C 4286.84,2624.27 4268.17,2624.43 4249.5,2624C 4245.7,2629.96 4242.87,2636.46 4241,2643.5C 4237.48,2651.37 4233.31,2658.87 4228.5,2666C 4223.51,2666.5 4218.51,2666.67 4213.5,2666.5C 4215.36,2660.11 4217.53,2653.78 4220,2647.5C 4238.34,2604.63 4256.51,2561.63 4274.5,2518.5 Z"/></g>
<g><path style="opacity:1" fill="#363632" d="M 4702.5,2643.5 C 4702.69,2645.2 4703.52,2646.53 4705,2647.5C 4704.94,2640.7 4704.44,2634.04 4703.5,2627.5C 4703.33,2591.17 4703.5,2554.83 4704,2518.5C 4706.24,2517.86 4708.58,2517.53 4711,2517.5C 4713.63,2517.58 4715.96,2518.25 4718,2519.5C 4717.69,2568.49 4717.53,2617.49 4717.5,2666.5C 4708.6,2668.26 4701.1,2665.93 4695,2659.5C 4667.3,2620.74 4639.13,2582.41 4610.5,2544.5C 4610.44,2543.96 4610.11,2543.62 4609.5,2543.5C 4608.5,2583.49 4608.17,2623.49 4608.5,2663.5C 4607.73,2664.17 4607.07,2665.01 4606.5,2666C 4602.18,2666.5 4597.85,2666.67 4593.5,2666.5C 4593.72,2616.83 4593.38,2567.16 4592.5,2517.5C 4600.14,2516.63 4607.31,2517.97 4614,2521.5C 4643.77,2562.06 4673.27,2602.72 4702.5,2643.5 Z"/></g>
<g><path style="opacity:1" fill="#383732" d="M 4834.5,2517.5 C 4868.44,2518.04 4892.94,2533.37 4908,2563.5C 4919.3,2597.59 4911.8,2626.76 4885.5,2651C 4859.23,2668.95 4831.56,2671.29 4802.5,2658C 4771.36,2637.61 4759.53,2609.11 4767,2572.5C 4778.04,2539.95 4800.54,2521.62 4834.5,2517.5 Z"/></g>
<g><path style="opacity:1" fill="#383732" d="M 4485.5,2535.5 C 4470.14,2535.8 4454.8,2535.47 4439.5,2534.5C 4437.96,2534.45 4436.96,2535.12 4436.5,2536.5C 4435.09,2579.33 4434.09,2622.33 4433.5,2665.5C 4428.9,2666.44 4424.23,2666.78 4419.5,2666.5C 4419.67,2623.17 4419.5,2579.83 4419,2536.5C 4418.5,2536 4418,2535.5 4417.5,2535C 4400.84,2534.98 4384.17,2535.14 4367.5,2535.5C 4367.5,2529.83 4367.5,2524.17 4367.5,2518.5C 4406.83,2518.33 4446.17,2518.5 4485.5,2519C 4486.77,2521.38 4487.43,2524.05 4487.5,2527C 4487.33,2529.5 4487.17,2532 4487,2534.5C 4486.62,2535.06 4486.12,2535.39 4485.5,2535.5 Z"/></g>
<g><path style="opacity:1" fill="#383732" d="M 4961.5,2518.5 C 4965.57,2518.23 4969.57,2518.57 4973.5,2519.5C 4974.67,2568.16 4974.83,2616.83 4974,2665.5C 4969.33,2666.83 4964.67,2666.83 4960,2665.5C 4959.83,2641.17 4959.67,2616.83 4959.5,2592.5C 4959.51,2567.62 4960.18,2542.95 4961.5,2518.5 Z"/></g>
<g><path style="opacity:1" fill="#363632" d="M 5030.5,2518.5 C 5058.18,2518.97 5085.85,2519.8 5113.5,2521C 5134.73,2525.23 5146.56,2538.06 5149,2559.5C 5151.32,2584.73 5140.15,2599.9 5115.5,2605C 5114.98,2605.56 5114.64,2606.23 5114.5,2607C 5125.82,2624.6 5137.32,2642.1 5149,2659.5C 5150.2,2661.68 5150.7,2664.01 5150.5,2666.5C 5145.49,2666.67 5140.49,2666.5 5135.5,2666C 5134.07,2665.53 5132.9,2664.7 5132,2663.5C 5120.46,2646.25 5109.29,2628.75 5098.5,2611C 5089.93,2609.86 5081.26,2609.36 5072.5,2609.5C 5064.5,2609.67 5056.5,2609.83 5048.5,2610C 5047.58,2610.37 5046.75,2610.87 5046,2611.5C 5045.5,2629.83 5045.33,2648.16 5045.5,2666.5C 5040.5,2666.5 5035.5,2666.5 5030.5,2666.5C 5030.5,2617.17 5030.5,2567.83 5030.5,2518.5 Z"/></g>
<g><path style="opacity:1" fill="#fcd809" d="M 4829.5,2532.5 C 4863.18,2530.74 4885.35,2545.74 4896,2577.5C 4900.83,2611.01 4888,2634.84 4857.5,2649C 4816.5,2657.25 4791,2641.08 4781,2600.5C 4779.93,2565.42 4796.1,2542.75 4829.5,2532.5 Z"/></g>
<g><path style="opacity:1" fill="#fad60a" d="M 5046.5,2533.5 C 5067.54,2533.07 5088.54,2533.57 5109.5,2535C 5130.5,2542.5 5137.33,2556.66 5130,2577.5C 5124.06,2585.55 5116.23,2590.72 5106.5,2593C 5086.85,2594.3 5067.18,2594.63 5047.5,2594C 5046.18,2584.23 5045.51,2574.23 5045.5,2564C 5045.51,2553.76 5045.84,2543.59 5046.5,2533.5 Z"/></g>
<g><path style="opacity:1" fill="#ceb212" d="M 4485.5,2535.5 C 4469.34,2536.5 4453.01,2536.83 4436.5,2536.5C 4436.96,2535.12 4437.96,2534.45 4439.5,2534.5C 4454.8,2535.47 4470.14,2535.8 4485.5,2535.5 Z"/></g>
<g><path style="opacity:1" fill="#f9d60a" d="M 4314.5,2606.5 C 4295.34,2607.5 4276.01,2607.83 4256.5,2607.5C 4256.5,2607.17 4256.5,2606.83 4256.5,2606.5C 4265.62,2583.59 4275.29,2560.93 4285.5,2538.5C 4295.56,2561.03 4305.23,2583.7 4314.5,2606.5 Z"/></g>
<g><path style="opacity:1" fill="#ad9819" d="M 4610.5,2544.5 C 4609.83,2584.17 4609.17,2623.83 4608.5,2663.5C 4608.17,2623.49 4608.5,2583.49 4609.5,2543.5C 4610.11,2543.62 4610.44,2543.96 4610.5,2544.5 Z"/></g>
<g><path style="opacity:1" fill="#caaf13" d="M 4314.5,2606.5 C 4315.34,2606.84 4315.67,2607.51 4315.5,2608.5C 4295.66,2608.83 4275.99,2608.5 4256.5,2607.5C 4276.01,2607.83 4295.34,2607.5 4314.5,2606.5 Z"/></g>
<g><path style="opacity:1" fill="#4d482d" d="M 4256.5,2606.5 C 4256.5,2606.83 4256.5,2607.17 4256.5,2607.5C 4275.99,2608.5 4295.66,2608.83 4315.5,2608.5C 4295.67,2609.5 4275.67,2609.83 4255.5,2609.5C 4255.26,2608.21 4255.6,2607.21 4256.5,2606.5 Z"/></g>
<g><path style="opacity:1" fill="#b49d1c" d="M 4703.5,2627.5 C 4704.44,2634.04 4704.94,2640.7 4705,2647.5C 4703.52,2646.53 4702.69,2645.2 4702.5,2643.5C 4703.49,2638.36 4703.82,2633.03 4703.5,2627.5 Z"/></g>
</svg>
